<svg width="28" height="173" viewBox="0 0 28 173" fill="none" xmlns="http://www.w3.org/2000/svg">
<path d="M19.8157 9.342L17.3497 9.342L17.3497 4.194L14.6857 4.194L14.6857 8.046L12.2917 8.046L12.2917 4.194L7.17969 4.194L7.17969 1.116L19.8157 1.116L19.8157 9.342ZM7.03569 15.5317C7.03569 14.5477 7.24569 13.6597 7.66569 12.8677C8.08569 12.0877 8.68569 11.4697 9.46569 11.0137C10.2457 10.5697 11.1577 10.3477 12.2017 10.3477C13.2337 10.3477 14.1397 10.5757 14.9197 11.0317C15.7117 11.4877 16.3177 12.1117 16.7377 12.9037C17.1577 13.6957 17.3677 14.5837 17.3677 15.5677C17.3677 16.5517 17.1577 17.4397 16.7377 18.2317C16.3177 19.0237 15.7117 19.6477 14.9197 20.1038C14.1397 20.5598 13.2337 20.7878 12.2017 20.7878C11.1697 20.7878 10.2577 20.5537 9.46569 20.0857C8.68569 19.6297 8.08569 18.9997 7.66569 18.1957C7.24569 17.4037 7.03569 16.5157 7.03569 15.5317ZM9.69969 15.5317C9.69969 16.1197 9.91569 16.6177 10.3477 17.0257C10.7797 17.4457 11.3977 17.6557 12.2017 17.6557C13.0057 17.6557 13.6237 17.4517 14.0557 17.0437C14.4877 16.6477 14.7037 16.1557 14.7037 15.5677C14.7037 14.9677 14.4877 14.4697 14.0557 14.0737C13.6357 13.6777 13.0177 13.4797 12.2017 13.4797C11.3977 13.4797 10.7797 13.6717 10.3477 14.0557C9.91569 14.4517 9.69969 14.9437 9.69969 15.5317ZM20.4997 25.4987L7.17969 25.4987L7.17969 22.4207L20.4997 22.4207L20.4997 25.4987ZM20.4997 30.8073L7.17969 30.8073L7.17969 27.7293L20.4997 27.7293L20.4997 30.8073ZM7.03569 37.6099C7.03569 36.6259 7.24569 35.7379 7.66569 34.9459C8.08569 34.1659 8.68569 33.5479 9.46569 33.0919C10.2457 32.6479 11.1577 32.4259 12.2017 32.4259C13.2337 32.4259 14.1397 32.6539 14.9197 33.1099C15.7117 33.5659 16.3177 34.1899 16.7377 34.9819C17.1577 35.7739 17.3677 36.6619 17.3677 37.6459C17.3677 38.6299 17.1577 39.5179 16.7377 40.3099C16.3177 41.1019 15.7117 41.7259 14.9197 42.1819C14.1397 42.6379 13.2337 42.8659 12.2017 42.8659C11.1697 42.8659 10.2577 42.6319 9.46569 42.1639C8.68569 41.7079 8.08569 41.0779 7.66569 40.2739C7.24569 39.4819 7.03569 38.5939 7.03569 37.6099ZM9.69969 37.6099C9.69969 38.1979 9.91569 38.6959 10.3477 39.1039C10.7797 39.5239 11.3977 39.7339 12.2017 39.7339C13.0057 39.7339 13.6237 39.5299 14.0557 39.1219C14.4877 38.7259 14.7037 38.2339 14.7037 37.6459C14.7037 37.0459 14.4877 36.5479 14.0557 36.1519C13.6357 35.7559 13.0177 35.5579 12.2017 35.5579C11.3977 35.5579 10.7797 35.7499 10.3477 36.1339C9.91569 36.5299 9.69969 37.0219 9.69969 37.6099ZM17.2237 58.9168L7.17969 56.1988L7.17969 52.7968L13.6957 51.2128L7.17969 49.5748L7.17969 46.1908L17.2237 43.4548L17.2237 46.5328L10.0417 47.9548L17.2237 49.6468L17.2237 52.9048L10.0777 54.6148L17.2237 56.0188L17.2237 58.9168ZM17.2237 73.8231L7.17968 73.8231L7.17968 70.7451L8.54768 70.7451C8.10368 70.4331 7.74368 70.0071 7.46768 69.4671C7.20368 68.9391 7.07168 68.3511 7.07168 67.7031C7.07168 66.9351 7.23968 66.2571 7.57568 65.6691C7.92368 65.0811 8.42168 64.6251 9.06968 64.3011C9.71768 63.9771 10.4797 63.8151 11.3557 63.8151L17.2237 63.8151L17.2237 66.8751L11.7697 66.8751C11.0977 66.8751 10.5757 67.0491 10.2037 67.3971C9.83168 67.7451 9.64568 68.2131 9.64568 68.8011C9.64568 69.4011 9.83168 69.8751 10.2037 70.2231C10.5757 70.5711 11.0977 70.7451 11.7697 70.7451L17.2237 70.7451L17.2237 73.8231ZM7.03568 80.12C7.03568 79.244 7.18568 78.464 7.48568 77.78C7.78568 77.096 8.19368 76.556 8.70968 76.16C9.23768 75.764 9.82568 75.542 10.4737 75.494L10.4737 78.536C10.1257 78.572 9.84368 78.734 9.62768 79.022C9.41168 79.31 9.30368 79.664 9.30368 80.084C9.30368 80.468 9.37568 80.762 9.51968 80.966C9.67568 81.182 9.87368 81.29 10.1137 81.29C10.4017 81.29 10.6117 81.14 10.7437 80.84C10.8877 80.54 11.0437 80.054 11.2117 79.382C11.3797 78.662 11.5537 78.062 11.7337 77.582C11.9257 77.102 12.2197 76.688 12.6157 76.34C13.0237 75.992 13.5697 75.818 14.2537 75.818C14.8297 75.818 15.3517 75.974 15.8197 76.286C16.2997 76.61 16.6777 77.078 16.9537 77.69C17.2297 78.314 17.3677 79.052 17.3677 79.904C17.3677 81.164 17.0557 82.154 16.4317 82.874C15.8077 83.606 14.9797 84.026 13.9477 84.134L13.9477 81.29C14.2957 81.242 14.5717 81.086 14.7757 80.822C14.9797 80.57 15.0817 80.234 15.0817 79.814C15.0817 79.454 15.0097 79.178 14.8657 78.986C14.7337 78.794 14.5477 78.698 14.3077 78.698C14.0197 78.698 13.8037 78.848 13.6597 79.148C13.5157 79.46 13.3717 79.94 13.2277 80.588C13.0357 81.332 12.8437 81.938 12.6517 82.406C12.4717 82.874 12.1717 83.282 11.7517 83.63C11.3437 83.99 10.7917 84.176 10.0957 84.188C9.50768 84.188 8.97968 84.02 8.51168 83.684C8.05568 83.36 7.69568 82.886 7.43168 82.262C7.16768 81.65 7.03568 80.936 7.03568 80.12Z" fill="white"/>
<path d="M10.9797 103H19.3797C22.5829 103 25.1797 105.597 25.1797 108.8V117.2C25.1797 120.403 22.5829 123 19.3797 123H10.9797C7.77644 123 5.17969 120.403 5.17969 117.2V108.8C5.17969 105.597 7.77644 103 10.9797 103ZM10.7797 105C8.79146 105 7.17969 106.612 7.17969 108.6V117.4C7.17969 119.388 8.79146 121 10.7797 121H19.5797C21.5679 121 23.1797 119.388 23.1797 117.4V108.6C23.1797 106.612 21.5679 105 19.5797 105H10.7797ZM20.4297 106.5C21.1201 106.5 21.6797 107.06 21.6797 107.75C21.6797 108.44 21.1201 109 20.4297 109C19.7393 109 19.1797 108.44 19.1797 107.75C19.1797 107.06 19.7393 106.5 20.4297 106.5ZM15.1797 108C17.9411 108 20.1797 110.239 20.1797 113C20.1797 115.761 17.9411 118 15.1797 118C12.4183 118 10.1797 115.761 10.1797 113C10.1797 110.239 12.4183 108 15.1797 108ZM15.1797 110C13.5228 110 12.1797 111.343 12.1797 113C12.1797 114.657 13.5228 116 15.1797 116C16.8366 116 18.1797 114.657 18.1797 113C18.1797 111.343 16.8366 110 15.1797 110Z" fill="white"/>
<path d="M25.6391 155.012C24.8695 155.354 24.0423 155.584 23.1743 155.688C24.0602 155.157 24.7408 154.316 25.0612 153.314C24.2319 153.806 23.3135 154.163 22.3359 154.355C21.5531 153.521 20.4378 153 19.2034 153C16.8333 153 14.9116 154.921 14.9116 157.292C14.9116 157.628 14.9496 157.955 15.0228 158.27C11.456 158.091 8.29368 156.382 6.17702 153.786C5.80758 154.419 5.59594 155.157 5.59594 155.943C5.59594 157.432 6.35357 158.746 7.50516 159.515C6.80172 159.493 6.13989 159.3 5.56132 158.978C5.56091 158.996 5.56091 159.014 5.56091 159.032C5.56091 161.112 7.04026 162.846 9.00352 163.241C8.64342 163.339 8.26427 163.391 7.87287 163.391C7.59633 163.391 7.32748 163.364 7.06539 163.314C7.61154 165.019 9.19646 166.26 11.0745 166.295C9.60569 167.446 7.7552 168.132 5.74446 168.132C5.39805 168.132 5.05644 168.111 4.7207 168.072C6.61996 169.289 8.87584 170 11.2994 170C19.1933 170 23.5101 163.46 23.5101 157.789C23.5101 157.603 23.5059 157.418 23.4976 157.234C24.3362 156.629 25.0638 155.873 25.6391 155.012Z" fill="white"/>
</svg>
