<svg width="937" height="344" viewBox="0 0 937 344" fill="none" xmlns="http://www.w3.org/2000/svg">
<path d="M151.22 54.7H146.22L145.46 57H141.34L146.48 42.9H151L156.12 57H151.98L151.22 54.7ZM150.24 51.7L148.72 47.14L147.22 51.7H150.24ZM187.845 42.9V57H183.925V51.34H179.145V57H175.225V42.9H179.145V48.2H183.925V42.9H187.845ZM201.009 42.9V57H197.089V42.9H201.009ZM218.581 57L214.161 50.82V57H210.241V42.9H214.161V48.98L218.541 42.9H223.061L217.881 49.74L223.321 57H218.581ZM235.673 42.9V57H231.753V42.9H235.673ZM257.965 57H254.045L248.825 49.12V57H244.905V42.9H248.825L254.045 50.88V42.9H257.965V57ZM276.198 47.54C275.971 47.1667 275.658 46.88 275.258 46.68C274.871 46.48 274.411 46.38 273.878 46.38C272.891 46.38 272.111 46.7 271.538 47.34C270.978 47.98 270.698 48.84 270.698 49.92C270.698 51.1333 270.998 52.06 271.598 52.7C272.211 53.3267 273.098 53.64 274.258 53.64C275.631 53.64 276.611 53.02 277.198 51.78H273.258V48.96H280.578V52.76C280.271 53.5067 279.818 54.2067 279.218 54.86C278.631 55.5133 277.885 56.0533 276.978 56.48C276.071 56.8933 275.038 57.1 273.878 57.1C272.465 57.1 271.211 56.8 270.118 56.2C269.038 55.5867 268.198 54.74 267.598 53.66C267.011 52.5667 266.718 51.32 266.718 49.92C266.718 48.5333 267.011 47.3 267.598 46.22C268.198 45.1267 269.038 44.28 270.118 43.68C271.198 43.0667 272.445 42.76 273.858 42.76C275.631 42.76 277.098 43.1867 278.258 44.04C279.418 44.8933 280.138 46.06 280.418 47.54H276.198ZM309.163 47.54C308.936 47.1667 308.623 46.88 308.223 46.68C307.836 46.48 307.376 46.38 306.843 46.38C305.856 46.38 305.076 46.7 304.503 47.34C303.943 47.98 303.663 48.84 303.663 49.92C303.663 51.1333 303.963 52.06 304.563 52.7C305.176 53.3267 306.063 53.64 307.223 53.64C308.596 53.64 309.576 53.02 310.163 51.78H306.223V48.96H313.543V52.76C313.236 53.5067 312.783 54.2067 312.183 54.86C311.596 55.5133 310.85 56.0533 309.943 56.48C309.036 56.8933 308.003 57.1 306.843 57.1C305.43 57.1 304.176 56.8 303.083 56.2C302.003 55.5867 301.163 54.74 300.563 53.66C299.976 52.5667 299.683 51.32 299.683 49.92C299.683 48.5333 299.976 47.3 300.563 46.22C301.163 45.1267 302.003 44.28 303.083 43.68C304.163 43.0667 305.41 42.76 306.823 42.76C308.596 42.76 310.063 43.1867 311.223 44.04C312.383 44.8933 313.103 46.06 313.383 47.54H309.163ZM326.14 42.9V51.08C326.14 51.84 326.313 52.4267 326.66 52.84C327.02 53.2533 327.56 53.46 328.28 53.46C329 53.46 329.54 53.2533 329.9 52.84C330.273 52.4133 330.46 51.8267 330.46 51.08V42.9H334.38V51.08C334.38 52.3733 334.106 53.48 333.56 54.4C333.013 55.3067 332.266 55.9933 331.32 56.46C330.386 56.9133 329.346 57.14 328.2 57.14C327.053 57.14 326.026 56.9133 325.12 56.46C324.226 55.9933 323.52 55.3067 323 54.4C322.493 53.4933 322.24 52.3867 322.24 51.08V42.9H326.14ZM347.458 42.9V57H343.538V42.9H347.458ZM362.27 42.9C363.75 42.9 365.044 43.2 366.15 43.8C367.27 44.3867 368.13 45.2133 368.73 46.28C369.33 47.3467 369.63 48.5667 369.63 49.94C369.63 51.3 369.324 52.5133 368.71 53.58C368.11 54.6467 367.25 55.4867 366.13 56.1C365.024 56.7 363.737 57 362.27 57H356.69V42.9H362.27ZM361.97 53.54C363.117 53.54 364.017 53.2267 364.67 52.6C365.324 51.9733 365.65 51.0867 365.65 49.94C365.65 48.78 365.324 47.8867 364.67 47.26C364.017 46.62 363.117 46.3 361.97 46.3H360.61V53.54H361.97ZM382.317 46.04V48.34H386.817V51.32H382.317V53.86H387.417V57H378.397V42.9H387.417V46.04H382.317Z" fill="#FFD472"/>
<line x1="107.18" y1="54.5" x2="0.179688" y2="54.5" stroke="#FFD472" stroke-width="3"/>
<path d="M39.3242 145.105C44.8529 146.395 48.7344 147.956 50.9688 149.789C54.1771 152.396 55.7812 155.776 55.7812 159.93C55.7812 164.312 54.0195 167.936 50.4961 170.801C46.1706 174.267 39.8828 176 31.6328 176H2.02734V174.41C4.72005 174.41 6.53906 174.167 7.48438 173.68C8.45833 173.164 9.13151 172.505 9.50391 171.703C9.90495 170.901 10.1055 168.924 10.1055 165.773V127.961C10.1055 124.81 9.90495 122.833 9.50391 122.031C9.13151 121.201 8.45833 120.542 7.48438 120.055C6.51042 119.568 4.69141 119.324 2.02734 119.324V117.734H29.957C36.6315 117.734 41.3581 118.336 44.1367 119.539C46.9154 120.714 49.1068 122.49 50.7109 124.867C52.3151 127.216 53.1172 129.723 53.1172 132.387C53.1172 135.194 52.1003 137.701 50.0664 139.906C48.0326 142.083 44.4518 143.816 39.3242 145.105ZM23.6836 143.945C27.7513 143.945 30.7448 143.487 32.6641 142.57C34.612 141.654 36.1016 140.365 37.1328 138.703C38.1641 137.042 38.6797 134.922 38.6797 132.344C38.6797 129.766 38.1641 127.66 37.1328 126.027C36.1302 124.366 34.6836 123.105 32.793 122.246C30.9023 121.387 27.8659 120.971 23.6836 121V143.945ZM23.6836 147.297V165.988L23.6406 168.137C23.6406 169.684 24.0273 170.858 24.8008 171.66C25.6029 172.434 26.7773 172.82 28.3242 172.82C30.6159 172.82 32.7214 172.319 34.6406 171.316C36.5885 170.285 38.0781 168.81 39.1094 166.891C40.1406 164.943 40.6562 162.78 40.6562 160.402C40.6562 157.681 40.026 155.246 38.7656 153.098C37.5052 150.921 35.7721 149.402 33.5664 148.543C31.3607 147.684 28.0664 147.268 23.6836 147.297ZM95.8711 154.473H73.8281C74.0859 159.801 75.5039 164.012 78.082 167.105C80.0586 169.483 82.4362 170.672 85.2148 170.672C86.9336 170.672 88.4948 170.199 89.8984 169.254C91.3021 168.28 92.806 166.547 94.4102 164.055L95.8711 165C93.694 169.44 91.2878 172.591 88.6523 174.453C86.0169 176.286 82.9661 177.203 79.5 177.203C73.5417 177.203 69.0299 174.911 65.9648 170.328C63.5013 166.633 62.2695 162.049 62.2695 156.578C62.2695 149.875 64.0742 144.547 67.6836 140.594C71.3216 136.612 75.5755 134.621 80.4453 134.621C84.513 134.621 88.0365 136.297 91.0156 139.648C94.0234 142.971 95.6419 147.913 95.8711 154.473ZM85.3008 151.594C85.3008 146.982 85.043 143.816 84.5273 142.098C84.0404 140.379 83.2669 139.076 82.207 138.188C81.6055 137.672 80.8034 137.414 79.8008 137.414C78.3112 137.414 77.0938 138.145 76.1484 139.605C74.4583 142.155 73.6133 145.65 73.6133 150.09V151.594H85.3008ZM143.738 149.617V165.773C143.738 168.924 143.924 170.915 144.297 171.746C144.698 172.548 145.385 173.193 146.359 173.68C147.362 174.167 149.181 174.41 151.816 174.41V176H122.211V174.41C124.904 174.41 126.723 174.167 127.668 173.68C128.642 173.164 129.315 172.505 129.688 171.703C130.089 170.901 130.289 168.924 130.289 165.773V127.961C130.289 124.81 130.089 122.833 129.688 122.031C129.315 121.201 128.642 120.542 127.668 120.055C126.694 119.568 124.875 119.324 122.211 119.324V117.734H147.605C155.97 117.734 161.971 119.224 165.609 122.203C169.247 125.182 171.066 128.906 171.066 133.375C171.066 137.156 169.892 140.393 167.543 143.086C165.194 145.779 161.957 147.612 157.832 148.586C155.053 149.273 150.355 149.617 143.738 149.617ZM143.738 121.086V146.266C144.684 146.323 145.4 146.352 145.887 146.352C149.382 146.352 152.074 145.32 153.965 143.258C155.855 141.167 156.801 137.944 156.801 133.59C156.801 129.264 155.855 126.099 153.965 124.094C152.074 122.089 149.253 121.086 145.5 121.086H143.738ZM193.41 135.824V144.934C196.074 140.78 198.409 138.03 200.414 136.684C202.419 135.309 204.353 134.621 206.215 134.621C207.819 134.621 209.094 135.122 210.039 136.125C211.013 137.099 211.5 138.488 211.5 140.293C211.5 142.212 211.027 143.702 210.082 144.762C209.165 145.822 208.048 146.352 206.73 146.352C205.212 146.352 203.895 145.865 202.777 144.891C201.66 143.917 201.001 143.372 200.801 143.258C200.514 143.086 200.185 143 199.812 143C198.982 143 198.194 143.315 197.449 143.945C196.275 144.919 195.387 146.309 194.785 148.113C193.868 150.892 193.41 153.957 193.41 157.309V166.547L193.453 168.953C193.453 170.586 193.553 171.632 193.754 172.09C194.098 172.863 194.599 173.436 195.258 173.809C195.945 174.152 197.091 174.367 198.695 174.453V176H176.996V174.453C178.743 174.31 179.918 173.837 180.52 173.035C181.15 172.204 181.465 170.042 181.465 166.547V144.332C181.465 142.04 181.35 140.579 181.121 139.949C180.835 139.147 180.419 138.56 179.875 138.188C179.331 137.815 178.371 137.557 176.996 137.414V135.824H193.41ZM248.238 154.473H226.195C226.453 159.801 227.871 164.012 230.449 167.105C232.426 169.483 234.803 170.672 237.582 170.672C239.301 170.672 240.862 170.199 242.266 169.254C243.669 168.28 245.173 166.547 246.777 164.055L248.238 165C246.061 169.44 243.655 172.591 241.02 174.453C238.384 176.286 235.333 177.203 231.867 177.203C225.909 177.203 221.397 174.911 218.332 170.328C215.868 166.633 214.637 162.049 214.637 156.578C214.637 149.875 216.441 144.547 220.051 140.594C223.689 136.612 227.943 134.621 232.812 134.621C236.88 134.621 240.404 136.297 243.383 139.648C246.391 142.971 248.009 147.913 248.238 154.473ZM237.668 151.594C237.668 146.982 237.41 143.816 236.895 142.098C236.408 140.379 235.634 139.076 234.574 138.188C233.973 137.672 233.171 137.414 232.168 137.414C230.678 137.414 229.461 138.145 228.516 139.605C226.826 142.155 225.98 145.65 225.98 150.09V151.594H237.668ZM268.863 171.918V186.871C268.863 188.934 269.021 190.337 269.336 191.082C269.68 191.827 270.195 192.371 270.883 192.715C271.57 193.059 272.917 193.23 274.922 193.23V194.82H252.02V193.23C253.796 193.173 255.113 192.672 255.973 191.727C256.546 191.068 256.832 189.363 256.832 186.613V144.203C256.832 141.367 256.503 139.562 255.844 138.789C255.185 137.987 253.91 137.529 252.02 137.414V135.824H268.863V141.109C270.267 139.047 271.699 137.557 273.16 136.641C275.251 135.294 277.529 134.621 279.992 134.621C282.943 134.621 285.621 135.552 288.027 137.414C290.462 139.276 292.31 141.854 293.57 145.148C294.831 148.414 295.461 151.938 295.461 155.719C295.461 159.786 294.802 163.51 293.484 166.891C292.195 170.242 290.305 172.806 287.812 174.582C285.349 176.329 282.599 177.203 279.562 177.203C277.357 177.203 275.294 176.716 273.375 175.742C271.943 174.997 270.439 173.723 268.863 171.918ZM268.863 167.578C271.327 171.073 273.962 172.82 276.77 172.82C278.316 172.82 279.591 172.004 280.594 170.371C282.083 167.965 282.828 163.382 282.828 156.621C282.828 149.689 282.012 144.948 280.379 142.398C279.29 140.708 277.829 139.863 275.996 139.863C273.103 139.863 270.725 141.954 268.863 146.137V167.578ZM324.465 170.07C319.566 174.396 315.169 176.559 311.273 176.559C308.982 176.559 307.077 175.814 305.559 174.324C304.04 172.806 303.281 170.915 303.281 168.652C303.281 165.587 304.599 162.837 307.234 160.402C309.87 157.939 315.613 154.673 324.465 150.605V146.566C324.465 143.53 324.293 141.625 323.949 140.852C323.634 140.049 323.018 139.362 322.102 138.789C321.185 138.188 320.154 137.887 319.008 137.887C317.146 137.887 315.613 138.302 314.41 139.133C313.665 139.648 313.293 140.25 313.293 140.938C313.293 141.539 313.694 142.284 314.496 143.172C315.585 144.404 316.129 145.592 316.129 146.738C316.129 148.142 315.599 149.345 314.539 150.348C313.508 151.322 312.147 151.809 310.457 151.809C308.652 151.809 307.134 151.264 305.902 150.176C304.699 149.087 304.098 147.812 304.098 146.352C304.098 144.289 304.914 142.327 306.547 140.465C308.18 138.574 310.457 137.128 313.379 136.125C316.301 135.122 319.337 134.621 322.488 134.621C326.298 134.621 329.306 135.438 331.512 137.07C333.746 138.674 335.193 140.422 335.852 142.312C336.253 143.516 336.453 146.28 336.453 150.605V166.203C336.453 168.036 336.525 169.197 336.668 169.684C336.811 170.142 337.026 170.486 337.312 170.715C337.599 170.944 337.928 171.059 338.301 171.059C339.046 171.059 339.805 170.529 340.578 169.469L341.867 170.5C340.435 172.62 338.945 174.167 337.398 175.141C335.88 176.086 334.147 176.559 332.199 176.559C329.908 176.559 328.117 176.029 326.828 174.969C325.539 173.88 324.751 172.247 324.465 170.07ZM324.465 166.934V153.484C320.999 155.518 318.421 157.695 316.73 160.016C315.613 161.562 315.055 163.124 315.055 164.699C315.055 166.017 315.527 167.177 316.473 168.18C317.189 168.953 318.191 169.34 319.48 169.34C320.913 169.34 322.574 168.538 324.465 166.934ZM362.965 135.824V144.934C365.629 140.78 367.964 138.03 369.969 136.684C371.974 135.309 373.908 134.621 375.77 134.621C377.374 134.621 378.648 135.122 379.594 136.125C380.568 137.099 381.055 138.488 381.055 140.293C381.055 142.212 380.582 143.702 379.637 144.762C378.72 145.822 377.603 146.352 376.285 146.352C374.767 146.352 373.449 145.865 372.332 144.891C371.215 143.917 370.556 143.372 370.355 143.258C370.069 143.086 369.74 143 369.367 143C368.536 143 367.749 143.315 367.004 143.945C365.829 144.919 364.941 146.309 364.34 148.113C363.423 150.892 362.965 153.957 362.965 157.309V166.547L363.008 168.953C363.008 170.586 363.108 171.632 363.309 172.09C363.652 172.863 364.154 173.436 364.812 173.809C365.5 174.152 366.646 174.367 368.25 174.453V176H346.551V174.453C348.298 174.31 349.473 173.837 350.074 173.035C350.704 172.204 351.02 170.042 351.02 166.547V144.332C351.02 142.04 350.905 140.579 350.676 139.949C350.389 139.147 349.974 138.56 349.43 138.188C348.885 137.815 347.926 137.557 346.551 137.414V135.824H362.965ZM417.793 154.473H395.75C396.008 159.801 397.426 164.012 400.004 167.105C401.98 169.483 404.358 170.672 407.137 170.672C408.855 170.672 410.417 170.199 411.82 169.254C413.224 168.28 414.728 166.547 416.332 164.055L417.793 165C415.616 169.44 413.21 172.591 410.574 174.453C407.939 176.286 404.888 177.203 401.422 177.203C395.464 177.203 390.952 174.911 387.887 170.328C385.423 166.633 384.191 162.049 384.191 156.578C384.191 149.875 385.996 144.547 389.605 140.594C393.243 136.612 397.497 134.621 402.367 134.621C406.435 134.621 409.958 136.297 412.938 139.648C415.945 142.971 417.564 147.913 417.793 154.473ZM407.223 151.594C407.223 146.982 406.965 143.816 406.449 142.098C405.962 140.379 405.189 139.076 404.129 138.188C403.527 137.672 402.725 137.414 401.723 137.414C400.233 137.414 399.016 138.145 398.07 139.605C396.38 142.155 395.535 145.65 395.535 150.09V151.594H407.223ZM461.922 117.734V163.969C461.922 167.091 462.008 168.939 462.18 169.512C462.409 170.457 462.839 171.159 463.469 171.617C464.128 172.076 465.259 172.362 466.863 172.477V173.895L449.891 177.203V170.844C447.857 173.307 446.038 174.983 444.434 175.871C442.858 176.759 441.068 177.203 439.062 177.203C433.935 177.203 429.882 174.911 426.902 170.328C424.496 166.604 423.293 162.035 423.293 156.621C423.293 152.296 424.038 148.428 425.527 145.02C427.017 141.582 429.051 138.99 431.629 137.242C434.236 135.495 437.029 134.621 440.008 134.621C441.927 134.621 443.632 134.993 445.121 135.738C446.611 136.483 448.201 137.786 449.891 139.648V127.531C449.891 124.466 449.762 122.618 449.504 121.988C449.16 121.158 448.645 120.542 447.957 120.141C447.27 119.74 445.98 119.539 444.09 119.539V117.734H461.922ZM449.891 144.977C447.771 140.909 445.178 138.875 442.113 138.875C441.053 138.875 440.18 139.161 439.492 139.734C438.432 140.622 437.559 142.184 436.871 144.418C436.212 146.652 435.883 150.076 435.883 154.688C435.883 159.758 436.255 163.51 437 165.945C437.745 168.38 438.762 170.142 440.051 171.23C440.71 171.775 441.612 172.047 442.758 172.047C445.279 172.047 447.656 170.07 449.891 166.117V144.977ZM515.074 121.086V145.02H516.75C519.328 145.02 521.434 144.633 523.066 143.859C524.699 143.086 526.074 141.783 527.191 139.949C528.337 138.116 529.082 135.638 529.426 132.516H530.93V161.777H529.426C528.882 156.249 527.392 152.611 524.957 150.863C522.551 149.087 519.815 148.199 516.75 148.199H515.074V166.031C515.074 169.01 515.232 170.872 515.547 171.617C515.891 172.362 516.535 173.021 517.48 173.594C518.454 174.138 519.758 174.41 521.391 174.41H523.324V176H492.859V174.41H494.793C496.483 174.41 497.844 174.109 498.875 173.508C499.62 173.107 500.193 172.419 500.594 171.445C500.909 170.758 501.066 168.953 501.066 166.031V127.703C501.066 124.724 500.909 122.862 500.594 122.117C500.279 121.372 499.634 120.728 498.66 120.184C497.715 119.611 496.426 119.324 494.793 119.324H492.859V117.734H542.016V134.449H540.254C539.853 130.525 538.822 127.617 537.16 125.727C535.527 123.836 533.15 122.504 530.027 121.73C528.309 121.301 525.129 121.086 520.488 121.086H515.074ZM566.594 134.621C570.089 134.621 573.34 135.523 576.348 137.328C579.355 139.133 581.633 141.697 583.18 145.02C584.755 148.342 585.543 151.98 585.543 155.934C585.543 161.634 584.096 166.404 581.203 170.242C577.708 174.883 572.882 177.203 566.723 177.203C560.678 177.203 556.023 175.083 552.758 170.844C549.492 166.604 547.859 161.691 547.859 156.105C547.859 150.348 549.521 145.335 552.844 141.066C556.195 136.77 560.779 134.621 566.594 134.621ZM566.766 137.672C565.305 137.672 564.044 138.23 562.984 139.348C561.953 140.436 561.266 142.613 560.922 145.879C560.607 149.116 560.449 153.628 560.449 159.414C560.449 162.479 560.65 165.344 561.051 168.008C561.366 170.042 562.039 171.589 563.07 172.648C564.102 173.708 565.276 174.238 566.594 174.238C567.883 174.238 568.957 173.88 569.816 173.164C570.934 172.19 571.678 170.829 572.051 169.082C572.624 166.361 572.91 160.861 572.91 152.582C572.91 147.712 572.638 144.375 572.094 142.57C571.549 140.737 570.747 139.405 569.688 138.574C568.943 137.973 567.969 137.672 566.766 137.672ZM608.316 135.824V144.934C610.98 140.78 613.315 138.03 615.32 136.684C617.326 135.309 619.259 134.621 621.121 134.621C622.725 134.621 624 135.122 624.945 136.125C625.919 137.099 626.406 138.488 626.406 140.293C626.406 142.212 625.934 143.702 624.988 144.762C624.072 145.822 622.954 146.352 621.637 146.352C620.118 146.352 618.801 145.865 617.684 144.891C616.566 143.917 615.908 143.372 615.707 143.258C615.421 143.086 615.091 143 614.719 143C613.888 143 613.1 143.315 612.355 143.945C611.181 144.919 610.293 146.309 609.691 148.113C608.775 150.892 608.316 153.957 608.316 157.309V166.547L608.359 168.953C608.359 170.586 608.46 171.632 608.66 172.09C609.004 172.863 609.505 173.436 610.164 173.809C610.852 174.152 611.997 174.367 613.602 174.453V176H591.902V174.453C593.65 174.31 594.824 173.837 595.426 173.035C596.056 172.204 596.371 170.042 596.371 166.547V144.332C596.371 142.04 596.257 140.579 596.027 139.949C595.741 139.147 595.326 138.56 594.781 138.188C594.237 137.815 593.277 137.557 591.902 137.414V135.824H608.316ZM702.031 117.734V133.504H700.484C699.568 129.866 698.551 127.259 697.434 125.684C696.316 124.079 694.784 122.805 692.836 121.859C691.747 121.344 689.842 121.086 687.121 121.086H682.781V166.031C682.781 169.01 682.939 170.872 683.254 171.617C683.598 172.362 684.242 173.021 685.188 173.594C686.161 174.138 687.479 174.41 689.141 174.41H691.074V176H660.566V174.41H662.5C664.19 174.41 665.551 174.109 666.582 173.508C667.327 173.107 667.914 172.419 668.344 171.445C668.659 170.758 668.816 168.953 668.816 166.031V121.086H664.605C660.681 121.086 657.831 121.917 656.055 123.578C653.562 125.898 651.987 129.207 651.328 133.504H649.695V117.734H702.031ZM724.59 117.734V140.98C726.796 138.66 728.815 137.027 730.648 136.082C732.482 135.108 734.387 134.621 736.363 134.621C738.884 134.621 741.033 135.337 742.809 136.77C744.613 138.202 745.802 139.892 746.375 141.84C746.977 143.759 747.277 147.01 747.277 151.594V167.277C747.277 170.342 747.564 172.262 748.137 173.035C748.71 173.78 749.87 174.253 751.617 174.453V176H731.25V174.453C732.682 174.253 733.757 173.68 734.473 172.734C734.988 171.99 735.246 170.171 735.246 167.277V149.359C735.246 146.036 735.117 143.96 734.859 143.129C734.602 142.27 734.158 141.611 733.527 141.152C732.926 140.665 732.238 140.422 731.465 140.422C730.319 140.422 729.202 140.823 728.113 141.625C727.025 142.398 725.85 143.773 724.59 145.75V167.277C724.59 170.142 724.805 171.932 725.234 172.648C725.779 173.622 726.896 174.224 728.586 174.453V176H708.219V174.453C709.909 174.281 711.112 173.737 711.828 172.82C712.315 172.19 712.559 170.342 712.559 167.277V126.457C712.559 123.421 712.272 121.53 711.699 120.785C711.155 120.04 709.995 119.553 708.219 119.324V117.734H724.59ZM791.191 154.473H769.148C769.406 159.801 770.824 164.012 773.402 167.105C775.379 169.483 777.757 170.672 780.535 170.672C782.254 170.672 783.815 170.199 785.219 169.254C786.622 168.28 788.126 166.547 789.73 164.055L791.191 165C789.014 169.44 786.608 172.591 783.973 174.453C781.337 176.286 778.286 177.203 774.82 177.203C768.862 177.203 764.35 174.911 761.285 170.328C758.822 166.633 757.59 162.049 757.59 156.578C757.59 149.875 759.395 144.547 763.004 140.594C766.642 136.612 770.896 134.621 775.766 134.621C779.833 134.621 783.357 136.297 786.336 139.648C789.344 142.971 790.962 147.913 791.191 154.473ZM780.621 151.594C780.621 146.982 780.363 143.816 779.848 142.098C779.361 140.379 778.587 139.076 777.527 138.188C776.926 137.672 776.124 137.414 775.121 137.414C773.632 137.414 772.414 138.145 771.469 139.605C769.779 142.155 768.934 145.65 768.934 150.09V151.594H780.621ZM42.1172 257.148L57.9297 218.734H81.6484V220.324H79.7578C78.0391 220.324 76.6641 220.625 75.6328 221.227C74.9167 221.628 74.3438 222.301 73.9141 223.246C73.599 223.934 73.4414 225.724 73.4414 228.617V267.031C73.4414 270.01 73.599 271.872 73.9141 272.617C74.2292 273.362 74.8737 274.021 75.8477 274.594C76.8216 275.138 78.125 275.41 79.7578 275.41H81.6484V277H51.2266V275.41H53.1172C54.8359 275.41 56.2109 275.109 57.2422 274.508C57.9583 274.107 58.5312 273.419 58.9609 272.445C59.276 271.758 59.4336 269.953 59.4336 267.031V223.848L37.0898 277H36.0586L13.3711 224.234V265.27C13.3711 268.134 13.4427 269.896 13.5859 270.555C13.9583 271.987 14.7604 273.161 15.9922 274.078C17.2526 274.966 19.2148 275.41 21.8789 275.41V277H1.94141V275.41H2.54297C3.83203 275.439 5.03516 275.238 6.15234 274.809C7.26953 274.35 8.11458 273.749 8.6875 273.004C9.26042 272.259 9.70443 271.214 10.0195 269.867C10.0768 269.552 10.1055 268.091 10.1055 265.484V228.617C10.1055 225.667 9.94792 223.833 9.63281 223.117C9.31771 222.372 8.67318 221.728 7.69922 221.184C6.72526 220.611 5.42188 220.324 3.78906 220.324H1.94141V218.734H25.7461L42.1172 257.148ZM105.195 235.621C108.69 235.621 111.941 236.523 114.949 238.328C117.957 240.133 120.234 242.697 121.781 246.02C123.357 249.342 124.145 252.98 124.145 256.934C124.145 262.634 122.698 267.404 119.805 271.242C116.31 275.883 111.483 278.203 105.324 278.203C99.2799 278.203 94.625 276.083 91.3594 271.844C88.0938 267.604 86.4609 262.691 86.4609 257.105C86.4609 251.348 88.1224 246.335 91.4453 242.066C94.7969 237.77 99.3802 235.621 105.195 235.621ZM105.367 238.672C103.906 238.672 102.646 239.23 101.586 240.348C100.555 241.436 99.8672 243.613 99.5234 246.879C99.2083 250.116 99.0508 254.628 99.0508 260.414C99.0508 263.479 99.2513 266.344 99.6523 269.008C99.9674 271.042 100.641 272.589 101.672 273.648C102.703 274.708 103.878 275.238 105.195 275.238C106.484 275.238 107.559 274.88 108.418 274.164C109.535 273.19 110.28 271.829 110.652 270.082C111.225 267.361 111.512 261.861 111.512 253.582C111.512 248.712 111.24 245.375 110.695 243.57C110.151 241.737 109.349 240.405 108.289 239.574C107.544 238.973 106.57 238.672 105.367 238.672ZM169.047 236.824V268.277C169.047 271.342 169.333 273.262 169.906 274.035C170.479 274.78 171.639 275.253 173.387 275.453V277H157.016V271.629C155.096 273.921 153.177 275.596 151.258 276.656C149.339 277.688 147.19 278.203 144.812 278.203C142.549 278.203 140.53 277.516 138.754 276.141C137.007 274.737 135.832 273.104 135.23 271.242C134.629 269.38 134.328 266.129 134.328 261.488V245.547C134.328 242.51 134.042 240.62 133.469 239.875C132.924 239.13 131.764 238.643 129.988 238.414V236.824H146.359V264.281C146.359 267.146 146.488 268.993 146.746 269.824C147.033 270.655 147.462 271.285 148.035 271.715C148.637 272.145 149.324 272.359 150.098 272.359C151.129 272.359 152.06 272.087 152.891 271.543C154.036 270.798 155.411 269.294 157.016 267.031V245.547C157.016 242.51 156.729 240.62 156.156 239.875C155.612 239.13 154.452 238.643 152.676 238.414V236.824H169.047ZM195.645 236.824V242.023C197.707 239.789 199.684 238.171 201.574 237.168C203.465 236.137 205.499 235.621 207.676 235.621C210.283 235.621 212.445 236.352 214.164 237.812C215.883 239.245 217.029 241.035 217.602 243.184C218.06 244.816 218.289 247.953 218.289 252.594V268.234C218.289 271.328 218.561 273.262 219.105 274.035C219.678 274.78 220.853 275.253 222.629 275.453V277H202.305V275.453C203.823 275.253 204.911 274.622 205.57 273.562C206.029 272.846 206.258 271.07 206.258 268.234V250.359C206.258 247.065 206.129 244.988 205.871 244.129C205.613 243.27 205.169 242.611 204.539 242.152C203.938 241.665 203.264 241.422 202.52 241.422C200.056 241.422 197.764 243.184 195.645 246.707V268.234C195.645 271.242 195.917 273.147 196.461 273.949C197.034 274.751 198.079 275.253 199.598 275.453V277H179.273V275.453C180.964 275.281 182.167 274.737 182.883 273.82C183.37 273.19 183.613 271.328 183.613 268.234V245.547C183.613 242.51 183.327 240.62 182.754 239.875C182.21 239.13 181.049 238.643 179.273 238.414V236.824H195.645ZM244.156 222.129V236.824H253.695V241.078H244.156V265.871C244.156 268.191 244.257 269.695 244.457 270.383C244.686 271.042 245.073 271.586 245.617 272.016C246.161 272.417 246.663 272.617 247.121 272.617C248.983 272.617 250.745 271.199 252.406 268.363L253.695 269.309C251.375 274.809 247.608 277.559 242.395 277.559C239.845 277.559 237.682 276.857 235.906 275.453C234.159 274.021 233.042 272.431 232.555 270.684C232.268 269.71 232.125 267.074 232.125 262.777V241.078H226.883V239.574C230.492 237.025 233.557 234.346 236.078 231.539C238.628 228.732 240.848 225.595 242.738 222.129H244.156ZM279.691 271.07C274.793 275.396 270.396 277.559 266.5 277.559C264.208 277.559 262.303 276.814 260.785 275.324C259.267 273.806 258.508 271.915 258.508 269.652C258.508 266.587 259.826 263.837 262.461 261.402C265.096 258.939 270.84 255.673 279.691 251.605V247.566C279.691 244.53 279.52 242.625 279.176 241.852C278.861 241.049 278.245 240.362 277.328 239.789C276.411 239.188 275.38 238.887 274.234 238.887C272.372 238.887 270.84 239.302 269.637 240.133C268.892 240.648 268.52 241.25 268.52 241.938C268.52 242.539 268.921 243.284 269.723 244.172C270.811 245.404 271.355 246.592 271.355 247.738C271.355 249.142 270.826 250.345 269.766 251.348C268.734 252.322 267.374 252.809 265.684 252.809C263.879 252.809 262.361 252.264 261.129 251.176C259.926 250.087 259.324 248.812 259.324 247.352C259.324 245.289 260.141 243.327 261.773 241.465C263.406 239.574 265.684 238.128 268.605 237.125C271.527 236.122 274.564 235.621 277.715 235.621C281.525 235.621 284.533 236.438 286.738 238.07C288.973 239.674 290.419 241.422 291.078 243.312C291.479 244.516 291.68 247.28 291.68 251.605V267.203C291.68 269.036 291.751 270.197 291.895 270.684C292.038 271.142 292.253 271.486 292.539 271.715C292.826 271.944 293.155 272.059 293.527 272.059C294.272 272.059 295.031 271.529 295.805 270.469L297.094 271.5C295.661 273.62 294.172 275.167 292.625 276.141C291.107 277.086 289.374 277.559 287.426 277.559C285.134 277.559 283.344 277.029 282.055 275.969C280.766 274.88 279.978 273.247 279.691 271.07ZM279.691 267.934V254.484C276.225 256.518 273.647 258.695 271.957 261.016C270.84 262.562 270.281 264.124 270.281 265.699C270.281 267.017 270.754 268.177 271.699 269.18C272.415 269.953 273.418 270.34 274.707 270.34C276.139 270.34 277.801 269.538 279.691 267.934ZM311.188 217.359C313.049 217.359 314.625 218.018 315.914 219.336C317.203 220.625 317.848 222.186 317.848 224.02C317.848 225.853 317.189 227.414 315.871 228.703C314.582 229.992 313.021 230.637 311.188 230.637C309.354 230.637 307.793 229.992 306.504 228.703C305.215 227.414 304.57 225.853 304.57 224.02C304.57 222.186 305.215 220.625 306.504 219.336C307.793 218.018 309.354 217.359 311.188 217.359ZM317.203 236.824V268.664C317.203 271.5 317.533 273.319 318.191 274.121C318.85 274.895 320.139 275.339 322.059 275.453V277H300.359V275.453C302.135 275.396 303.453 274.88 304.312 273.906C304.885 273.247 305.172 271.5 305.172 268.664V245.203C305.172 242.367 304.842 240.562 304.184 239.789C303.525 238.987 302.25 238.529 300.359 238.414V236.824H317.203ZM342.426 236.824V242.023C344.488 239.789 346.465 238.171 348.355 237.168C350.246 236.137 352.28 235.621 354.457 235.621C357.064 235.621 359.227 236.352 360.945 237.812C362.664 239.245 363.81 241.035 364.383 243.184C364.841 244.816 365.07 247.953 365.07 252.594V268.234C365.07 271.328 365.342 273.262 365.887 274.035C366.46 274.78 367.634 275.253 369.41 275.453V277H349.086V275.453C350.604 275.253 351.693 274.622 352.352 273.562C352.81 272.846 353.039 271.07 353.039 268.234V250.359C353.039 247.065 352.91 244.988 352.652 244.129C352.395 243.27 351.951 242.611 351.32 242.152C350.719 241.665 350.046 241.422 349.301 241.422C346.837 241.422 344.546 243.184 342.426 246.707V268.234C342.426 271.242 342.698 273.147 343.242 273.949C343.815 274.751 344.861 275.253 346.379 275.453V277H326.055V275.453C327.745 275.281 328.948 274.737 329.664 273.82C330.151 273.19 330.395 271.328 330.395 268.234V245.547C330.395 242.51 330.108 240.62 329.535 239.875C328.991 239.13 327.831 238.643 326.055 238.414V236.824H342.426ZM400.391 235.707L401.035 249.414H399.574C397.827 245.346 396.008 242.568 394.117 241.078C392.255 239.589 390.393 238.844 388.531 238.844C387.357 238.844 386.354 239.245 385.523 240.047C384.693 240.82 384.277 241.723 384.277 242.754C384.277 243.527 384.564 244.272 385.137 244.988C386.053 246.163 388.617 248.182 392.828 251.047C397.039 253.883 399.803 256.303 401.121 258.309C402.467 260.285 403.141 262.505 403.141 264.969C403.141 267.203 402.582 269.395 401.465 271.543C400.348 273.691 398.772 275.339 396.738 276.484C394.704 277.63 392.456 278.203 389.992 278.203C388.073 278.203 385.509 277.602 382.301 276.398C381.441 276.083 380.854 275.926 380.539 275.926C379.594 275.926 378.806 276.642 378.176 278.074H376.758L376.07 263.637H377.531C378.82 267.418 380.582 270.254 382.816 272.145C385.079 274.035 387.214 274.98 389.219 274.98C390.594 274.98 391.711 274.565 392.57 273.734C393.458 272.875 393.902 271.844 393.902 270.641C393.902 269.266 393.473 268.077 392.613 267.074C391.754 266.072 389.835 264.553 386.855 262.52C382.473 259.483 379.637 257.163 378.348 255.559C376.457 253.21 375.512 250.617 375.512 247.781C375.512 244.688 376.572 241.895 378.691 239.402C380.84 236.882 383.934 235.621 387.973 235.621C390.15 235.621 392.255 236.151 394.289 237.211C395.062 237.641 395.693 237.855 396.18 237.855C396.695 237.855 397.111 237.755 397.426 237.555C397.741 237.326 398.242 236.71 398.93 235.707H400.391ZM460.031 260.414H439.449L437 266.086C436.198 267.977 435.797 269.538 435.797 270.77C435.797 272.402 436.456 273.605 437.773 274.379C438.547 274.837 440.452 275.181 443.488 275.41V277H424.109V275.41C426.201 275.095 427.919 274.236 429.266 272.832C430.612 271.4 432.273 268.464 434.25 264.023L455.09 217.531H455.906L476.918 265.312C478.923 269.839 480.57 272.689 481.859 273.863C482.833 274.751 484.208 275.267 485.984 275.41V277H457.797V275.41H458.957C461.22 275.41 462.81 275.095 463.727 274.465C464.357 274.007 464.672 273.348 464.672 272.488C464.672 271.973 464.586 271.443 464.414 270.898C464.357 270.641 463.927 269.566 463.125 267.676L460.031 260.414ZM458.57 257.234L449.891 237.168L440.953 257.234H458.57ZM506.395 236.824V242.023C508.457 239.789 510.434 238.171 512.324 237.168C514.215 236.137 516.249 235.621 518.426 235.621C521.033 235.621 523.195 236.352 524.914 237.812C526.633 239.245 527.779 241.035 528.352 243.184C528.81 244.816 529.039 247.953 529.039 252.594V268.234C529.039 271.328 529.311 273.262 529.855 274.035C530.428 274.78 531.603 275.253 533.379 275.453V277H513.055V275.453C514.573 275.253 515.661 274.622 516.32 273.562C516.779 272.846 517.008 271.07 517.008 268.234V250.359C517.008 247.065 516.879 244.988 516.621 244.129C516.363 243.27 515.919 242.611 515.289 242.152C514.688 241.665 514.014 241.422 513.27 241.422C510.806 241.422 508.514 243.184 506.395 246.707V268.234C506.395 271.242 506.667 273.147 507.211 273.949C507.784 274.751 508.829 275.253 510.348 275.453V277H490.023V275.453C491.714 275.281 492.917 274.737 493.633 273.82C494.12 273.19 494.363 271.328 494.363 268.234V245.547C494.363 242.51 494.077 240.62 493.504 239.875C492.96 239.13 491.799 238.643 490.023 238.414V236.824H506.395ZM578.023 218.734V264.969C578.023 268.091 578.109 269.939 578.281 270.512C578.51 271.457 578.94 272.159 579.57 272.617C580.229 273.076 581.361 273.362 582.965 273.477V274.895L565.992 278.203V271.844C563.958 274.307 562.139 275.983 560.535 276.871C558.96 277.759 557.169 278.203 555.164 278.203C550.036 278.203 545.983 275.911 543.004 271.328C540.598 267.604 539.395 263.035 539.395 257.621C539.395 253.296 540.139 249.428 541.629 246.02C543.118 242.582 545.152 239.99 547.73 238.242C550.337 236.495 553.13 235.621 556.109 235.621C558.029 235.621 559.733 235.993 561.223 236.738C562.712 237.483 564.302 238.786 565.992 240.648V228.531C565.992 225.466 565.863 223.618 565.605 222.988C565.262 222.158 564.746 221.542 564.059 221.141C563.371 220.74 562.082 220.539 560.191 220.539V218.734H578.023ZM565.992 245.977C563.872 241.909 561.28 239.875 558.215 239.875C557.155 239.875 556.281 240.161 555.594 240.734C554.534 241.622 553.66 243.184 552.973 245.418C552.314 247.652 551.984 251.076 551.984 255.688C551.984 260.758 552.357 264.51 553.102 266.945C553.846 269.38 554.863 271.142 556.152 272.23C556.811 272.775 557.714 273.047 558.859 273.047C561.38 273.047 563.758 271.07 565.992 267.117V245.977ZM646.129 246.105C651.658 247.395 655.539 248.956 657.773 250.789C660.982 253.396 662.586 256.776 662.586 260.93C662.586 265.312 660.824 268.936 657.301 271.801C652.975 275.267 646.688 277 638.438 277H608.832V275.41C611.525 275.41 613.344 275.167 614.289 274.68C615.263 274.164 615.936 273.505 616.309 272.703C616.71 271.901 616.91 269.924 616.91 266.773V228.961C616.91 225.81 616.71 223.833 616.309 223.031C615.936 222.201 615.263 221.542 614.289 221.055C613.315 220.568 611.496 220.324 608.832 220.324V218.734H636.762C643.436 218.734 648.163 219.336 650.941 220.539C653.72 221.714 655.911 223.49 657.516 225.867C659.12 228.216 659.922 230.723 659.922 233.387C659.922 236.194 658.905 238.701 656.871 240.906C654.837 243.083 651.257 244.816 646.129 246.105ZM630.488 244.945C634.556 244.945 637.549 244.487 639.469 243.57C641.417 242.654 642.906 241.365 643.938 239.703C644.969 238.042 645.484 235.922 645.484 233.344C645.484 230.766 644.969 228.66 643.938 227.027C642.935 225.366 641.488 224.105 639.598 223.246C637.707 222.387 634.671 221.971 630.488 222V244.945ZM630.488 248.297V266.988L630.445 269.137C630.445 270.684 630.832 271.858 631.605 272.66C632.408 273.434 633.582 273.82 635.129 273.82C637.421 273.82 639.526 273.319 641.445 272.316C643.393 271.285 644.883 269.81 645.914 267.891C646.945 265.943 647.461 263.78 647.461 261.402C647.461 258.681 646.831 256.246 645.57 254.098C644.31 251.921 642.577 250.402 640.371 249.543C638.165 248.684 634.871 248.268 630.488 248.297ZM702.676 255.473H680.633C680.891 260.801 682.309 265.012 684.887 268.105C686.863 270.483 689.241 271.672 692.02 271.672C693.738 271.672 695.299 271.199 696.703 270.254C698.107 269.28 699.611 267.547 701.215 265.055L702.676 266C700.499 270.44 698.092 273.591 695.457 275.453C692.822 277.286 689.771 278.203 686.305 278.203C680.346 278.203 675.835 275.911 672.77 271.328C670.306 267.633 669.074 263.049 669.074 257.578C669.074 250.875 670.879 245.547 674.488 241.594C678.126 237.612 682.38 235.621 687.25 235.621C691.318 235.621 694.841 237.297 697.82 240.648C700.828 243.971 702.447 248.913 702.676 255.473ZM692.105 252.594C692.105 247.982 691.848 244.816 691.332 243.098C690.845 241.379 690.072 240.076 689.012 239.188C688.41 238.672 687.608 238.414 686.605 238.414C685.116 238.414 683.898 239.145 682.953 240.605C681.263 243.155 680.418 246.65 680.418 251.09V252.594H692.105ZM726.18 278.633L713.203 248.855C711.255 244.358 709.809 241.594 708.863 240.562C707.947 239.531 706.829 238.815 705.512 238.414V236.824H726.867V238.414C725.464 238.471 724.475 238.743 723.902 239.23C723.329 239.717 723.043 240.305 723.043 240.992C723.043 242.081 723.759 244.229 725.191 247.438L732.066 263.164L736.75 251.004C738.44 246.678 739.285 243.671 739.285 241.98C739.285 240.921 738.927 240.076 738.211 239.445C737.523 238.815 736.292 238.471 734.516 238.414V236.824H747.965V238.414C746.647 238.557 745.573 239.073 744.742 239.961C743.911 240.82 742.522 243.785 740.574 248.855L729.102 278.633C726.208 286.081 724.06 290.664 722.656 292.383C720.68 294.789 718.202 295.992 715.223 295.992C712.845 295.992 710.911 295.305 709.422 293.93C707.961 292.583 707.23 290.951 707.23 289.031C707.23 287.37 707.732 285.995 708.734 284.906C709.766 283.818 711.026 283.273 712.516 283.273C713.948 283.273 715.094 283.732 715.953 284.648C716.841 285.565 717.299 286.983 717.328 288.902C717.357 289.991 717.486 290.693 717.715 291.008C717.944 291.323 718.273 291.48 718.703 291.48C719.391 291.48 720.121 291.065 720.895 290.234C722.04 289.031 723.387 286.281 724.934 281.984L726.18 278.633ZM770.695 235.621C774.19 235.621 777.441 236.523 780.449 238.328C783.457 240.133 785.734 242.697 787.281 246.02C788.857 249.342 789.645 252.98 789.645 256.934C789.645 262.634 788.198 267.404 785.305 271.242C781.81 275.883 776.983 278.203 770.824 278.203C764.78 278.203 760.125 276.083 756.859 271.844C753.594 267.604 751.961 262.691 751.961 257.105C751.961 251.348 753.622 246.335 756.945 242.066C760.297 237.77 764.88 235.621 770.695 235.621ZM770.867 238.672C769.406 238.672 768.146 239.23 767.086 240.348C766.055 241.436 765.367 243.613 765.023 246.879C764.708 250.116 764.551 254.628 764.551 260.414C764.551 263.479 764.751 266.344 765.152 269.008C765.467 271.042 766.141 272.589 767.172 273.648C768.203 274.708 769.378 275.238 770.695 275.238C771.984 275.238 773.059 274.88 773.918 274.164C775.035 273.19 775.78 271.829 776.152 270.082C776.725 267.361 777.012 261.861 777.012 253.582C777.012 248.712 776.74 245.375 776.195 243.57C775.651 241.737 774.849 240.405 773.789 239.574C773.044 238.973 772.07 238.672 770.867 238.672ZM812.16 236.824V242.023C814.223 239.789 816.199 238.171 818.09 237.168C819.98 236.137 822.014 235.621 824.191 235.621C826.798 235.621 828.961 236.352 830.68 237.812C832.398 239.245 833.544 241.035 834.117 243.184C834.576 244.816 834.805 247.953 834.805 252.594V268.234C834.805 271.328 835.077 273.262 835.621 274.035C836.194 274.78 837.368 275.253 839.145 275.453V277H818.82V275.453C820.339 275.253 821.427 274.622 822.086 273.562C822.544 272.846 822.773 271.07 822.773 268.234V250.359C822.773 247.065 822.645 244.988 822.387 244.129C822.129 243.27 821.685 242.611 821.055 242.152C820.453 241.665 819.78 241.422 819.035 241.422C816.572 241.422 814.28 243.184 812.16 246.707V268.234C812.16 271.242 812.432 273.147 812.977 273.949C813.549 274.751 814.595 275.253 816.113 275.453V277H795.789V275.453C797.479 275.281 798.682 274.737 799.398 273.82C799.885 273.19 800.129 271.328 800.129 268.234V245.547C800.129 242.51 799.842 240.62 799.27 239.875C798.725 239.13 797.565 238.643 795.789 238.414V236.824H812.16ZM883.789 218.734V264.969C883.789 268.091 883.875 269.939 884.047 270.512C884.276 271.457 884.706 272.159 885.336 272.617C885.995 273.076 887.126 273.362 888.73 273.477V274.895L871.758 278.203V271.844C869.724 274.307 867.905 275.983 866.301 276.871C864.725 277.759 862.935 278.203 860.93 278.203C855.802 278.203 851.749 275.911 848.77 271.328C846.363 267.604 845.16 263.035 845.16 257.621C845.16 253.296 845.905 249.428 847.395 246.02C848.884 242.582 850.918 239.99 853.496 238.242C856.103 236.495 858.896 235.621 861.875 235.621C863.794 235.621 865.499 235.993 866.988 236.738C868.478 237.483 870.068 238.786 871.758 240.648V228.531C871.758 225.466 871.629 223.618 871.371 222.988C871.027 222.158 870.512 221.542 869.824 221.141C869.137 220.74 867.848 220.539 865.957 220.539V218.734H883.789ZM871.758 245.977C869.638 241.909 867.046 239.875 863.98 239.875C862.921 239.875 862.047 240.161 861.359 240.734C860.299 241.622 859.426 243.184 858.738 245.418C858.079 247.652 857.75 251.076 857.75 255.688C857.75 260.758 858.122 264.51 858.867 266.945C859.612 269.38 860.629 271.142 861.918 272.23C862.577 272.775 863.479 273.047 864.625 273.047C867.146 273.047 869.523 271.07 871.758 267.117V245.977ZM906.391 258.051H904.5C904.299 254.785 903.641 250.832 902.523 246.191L900.289 236.824C898.943 231.21 898.27 227.185 898.27 224.75C898.27 222.544 898.928 220.768 900.246 219.422C901.564 218.076 903.283 217.402 905.402 217.402C907.465 217.402 909.169 218.09 910.516 219.465C911.891 220.811 912.578 222.53 912.578 224.621C912.578 226.798 911.862 230.866 910.43 236.824L908.152 246.191C907.35 249.514 906.763 253.467 906.391 258.051ZM905.488 264.195C907.408 264.195 909.04 264.883 910.387 266.258C911.762 267.604 912.449 269.251 912.449 271.199C912.449 273.118 911.762 274.766 910.387 276.141C909.04 277.487 907.408 278.16 905.488 278.16C903.569 278.16 901.922 277.487 900.547 276.141C899.201 274.766 898.527 273.118 898.527 271.199C898.527 269.28 899.201 267.633 900.547 266.258C901.893 264.883 903.54 264.195 905.488 264.195Z" fill="white"/>
<path d="M5.38169 337.144C4.50569 337.144 3.72569 336.994 3.04169 336.694C2.35769 336.394 1.81769 335.986 1.42169 335.47C1.02569 334.942 0.803688 334.354 0.755688 333.706H3.79769C3.83369 334.054 3.99569 334.336 4.28369 334.552C4.57169 334.768 4.92569 334.876 5.34569 334.876C5.72969 334.876 6.02369 334.804 6.22769 334.66C6.44369 334.504 6.55169 334.306 6.55169 334.066C6.55169 333.778 6.40169 333.568 6.10169 333.436C5.80169 333.292 5.31569 333.136 4.64369 332.968C3.92369 332.8 3.32369 332.626 2.84369 332.446C2.36369 332.254 1.94969 331.96 1.60169 331.564C1.25369 331.156 1.07969 330.61 1.07969 329.926C1.07969 329.35 1.23569 328.828 1.54769 328.36C1.87169 327.88 2.33969 327.502 2.95169 327.226C3.57569 326.95 4.31369 326.812 5.16569 326.812C6.42569 326.812 7.41569 327.124 8.13569 327.748C8.86769 328.372 9.28769 329.2 9.39569 330.232H6.55169C6.50369 329.884 6.34769 329.608 6.08369 329.404C5.83169 329.2 5.49569 329.098 5.07569 329.098C4.71569 329.098 4.43969 329.17 4.24769 329.314C4.05569 329.446 3.95969 329.632 3.95969 329.872C3.95969 330.16 4.10969 330.376 4.40969 330.52C4.72169 330.664 5.20169 330.808 5.84969 330.952C6.59369 331.144 7.19969 331.336 7.66769 331.528C8.13569 331.708 8.54369 332.008 8.89169 332.428C9.25169 332.836 9.43769 333.388 9.44969 334.084C9.44969 334.672 9.28169 335.2 8.94569 335.668C8.62169 336.124 8.14769 336.484 7.52369 336.748C6.91169 337.012 6.19769 337.144 5.38169 337.144ZM10.7208 331.978C10.7208 330.934 10.9308 330.022 11.3508 329.242C11.7828 328.462 12.3768 327.862 13.1328 327.442C13.9008 327.022 14.7768 326.812 15.7608 326.812C17.0208 326.812 18.0708 327.142 18.9108 327.802C19.7628 328.462 20.3208 329.392 20.5848 330.592H17.3088C17.0328 329.824 16.4988 329.44 15.7068 329.44C15.1428 329.44 14.6928 329.662 14.3568 330.106C14.0208 330.538 13.8528 331.162 13.8528 331.978C13.8528 332.794 14.0208 333.424 14.3568 333.868C14.6928 334.3 15.1428 334.516 15.7068 334.516C16.4988 334.516 17.0328 334.132 17.3088 333.364H20.5848C20.3208 334.54 19.7628 335.464 18.9108 336.136C18.0588 336.808 17.0088 337.144 15.7608 337.144C14.7768 337.144 13.9008 336.934 13.1328 336.514C12.3768 336.094 11.7828 335.494 11.3508 334.714C10.9308 333.934 10.7208 333.022 10.7208 331.978ZM25.3092 328.63C25.6692 328.078 26.1192 327.646 26.6592 327.334C27.1992 327.01 27.7992 326.848 28.4592 326.848V330.106H27.6132C26.8452 330.106 26.2692 330.274 25.8852 330.61C25.5012 330.934 25.3092 331.51 25.3092 332.338V337H22.2312V326.956H25.3092V328.63ZM34.5025 337.144C33.5185 337.144 32.6305 336.934 31.8385 336.514C31.0585 336.094 30.4405 335.494 29.9845 334.714C29.5405 333.934 29.3185 333.022 29.3185 331.978C29.3185 330.946 29.5465 330.04 30.0025 329.26C30.4585 328.468 31.0825 327.862 31.8745 327.442C32.6665 327.022 33.5545 326.812 34.5385 326.812C35.5225 326.812 36.4105 327.022 37.2025 327.442C37.9945 327.862 38.6185 328.468 39.0745 329.26C39.5305 330.04 39.7585 330.946 39.7585 331.978C39.7585 333.01 39.5245 333.922 39.0565 334.714C38.6005 335.494 37.9705 336.094 37.1665 336.514C36.3745 336.934 35.4865 337.144 34.5025 337.144ZM34.5025 334.48C35.0905 334.48 35.5885 334.264 35.9965 333.832C36.4165 333.4 36.6265 332.782 36.6265 331.978C36.6265 331.174 36.4225 330.556 36.0145 330.124C35.6185 329.692 35.1265 329.476 34.5385 329.476C33.9385 329.476 33.4405 329.692 33.0445 330.124C32.6485 330.544 32.4505 331.162 32.4505 331.978C32.4505 332.782 32.6425 333.4 33.0265 333.832C33.4225 334.264 33.9145 334.48 34.5025 334.48ZM44.4694 323.68V337H41.3914V323.68H44.4694ZM49.778 323.68V337H46.7V323.68H49.778ZM55.211 331.96C55.211 330.928 55.403 330.022 55.787 329.242C56.183 328.462 56.717 327.862 57.389 327.442C58.061 327.022 58.811 326.812 59.639 326.812C60.299 326.812 60.899 326.95 61.439 327.226C61.991 327.502 62.423 327.874 62.735 328.342V323.68H65.813V337H62.735V335.56C62.447 336.04 62.033 336.424 61.493 336.712C60.965 337 60.347 337.144 59.639 337.144C58.811 337.144 58.061 336.934 57.389 336.514C56.717 336.082 56.183 335.476 55.787 334.696C55.403 333.904 55.211 332.992 55.211 331.96ZM62.735 331.978C62.735 331.21 62.519 330.604 62.087 330.16C61.667 329.716 61.151 329.494 60.539 329.494C59.927 329.494 59.405 329.716 58.973 330.16C58.553 330.592 58.343 331.192 58.343 331.96C58.343 332.728 58.553 333.34 58.973 333.796C59.405 334.24 59.927 334.462 60.539 334.462C61.151 334.462 61.667 334.24 62.087 333.796C62.519 333.352 62.735 332.746 62.735 331.978ZM72.6118 337.144C71.6278 337.144 70.7398 336.934 69.9478 336.514C69.1678 336.094 68.5498 335.494 68.0938 334.714C67.6498 333.934 67.4278 333.022 67.4278 331.978C67.4278 330.946 67.6558 330.04 68.1118 329.26C68.5678 328.468 69.1918 327.862 69.9838 327.442C70.7758 327.022 71.6638 326.812 72.6478 326.812C73.6318 326.812 74.5198 327.022 75.3118 327.442C76.1038 327.862 76.7278 328.468 77.1838 329.26C77.6398 330.04 77.8678 330.946 77.8678 331.978C77.8678 333.01 77.6338 333.922 77.1658 334.714C76.7098 335.494 76.0798 336.094 75.2758 336.514C74.4838 336.934 73.5958 337.144 72.6118 337.144ZM72.6118 334.48C73.1998 334.48 73.6978 334.264 74.1058 333.832C74.5258 333.4 74.7358 332.782 74.7358 331.978C74.7358 331.174 74.5318 330.556 74.1238 330.124C73.7278 329.692 73.2358 329.476 72.6478 329.476C72.0478 329.476 71.5498 329.692 71.1538 330.124C70.7578 330.544 70.5598 331.162 70.5598 331.978C70.5598 332.782 70.7518 333.4 71.1358 333.832C71.5318 334.264 72.0238 334.48 72.6118 334.48ZM93.9188 326.956L91.2008 337H87.7988L86.2148 330.484L84.5768 337H81.1928L78.4568 326.956H81.5348L82.9568 334.138L84.6488 326.956H87.9068L89.6168 334.102L91.0208 326.956H93.9188ZM101.213 326.848C102.389 326.848 103.325 327.232 104.021 328C104.729 328.756 105.083 329.8 105.083 331.132V337H102.023V331.546C102.023 330.874 101.849 330.352 101.501 329.98C101.153 329.608 100.685 329.422 100.097 329.422C99.5086 329.422 99.0406 329.608 98.6926 329.98C98.3446 330.352 98.1706 330.874 98.1706 331.546V337H95.0926V326.956H98.1706V328.288C98.4826 327.844 98.9026 327.496 99.4306 327.244C99.9586 326.98 100.553 326.848 101.213 326.848Z" fill="white"/>
<path d="M126.18 332L124.77 330.59L119.18 336.17V316H117.18V336.17L111.6 330.58L110.18 332L118.18 340L126.18 332Z" fill="white"/>
</svg>
