<svg width="258" height="444" viewBox="0 0 258 444" fill="none" xmlns="http://www.w3.org/2000/svg">
<g filter="url(#filter0_d_26_5253)">
<rect opacity="0.5" x="174.18" y="100" width="3" height="240" fill="white"/>
<rect x="174.18" y="100" width="3" height="60" fill="white"/>
<g clip-path="url(#clip0_26_5253)">
<path d="M106.252 136.126C105.328 136.126 104.5 135.976 103.768 135.676C103.036 135.376 102.448 134.932 102.004 134.344C101.572 133.756 101.344 133.048 101.32 132.22H104.596C104.644 132.688 104.806 133.048 105.082 133.3C105.358 133.54 105.718 133.66 106.162 133.66C106.618 133.66 106.978 133.558 107.242 133.354C107.506 133.138 107.638 132.844 107.638 132.472C107.638 132.16 107.53 131.902 107.314 131.698C107.11 131.494 106.852 131.326 106.54 131.194C106.24 131.062 105.808 130.912 105.244 130.744C104.428 130.492 103.762 130.24 103.246 129.988C102.73 129.736 102.286 129.364 101.914 128.872C101.542 128.38 101.356 127.738 101.356 126.946C101.356 125.77 101.782 124.852 102.634 124.192C103.486 123.52 104.596 123.184 105.964 123.184C107.356 123.184 108.478 123.52 109.33 124.192C110.182 124.852 110.638 125.776 110.698 126.964H107.368C107.344 126.556 107.194 126.238 106.918 126.01C106.642 125.77 106.288 125.65 105.856 125.65C105.484 125.65 105.184 125.752 104.956 125.956C104.728 126.148 104.614 126.43 104.614 126.802C104.614 127.21 104.806 127.528 105.19 127.756C105.574 127.984 106.174 128.23 106.99 128.494C107.806 128.77 108.466 129.034 108.97 129.286C109.486 129.538 109.93 129.904 110.302 130.384C110.674 130.864 110.86 131.482 110.86 132.238C110.86 132.958 110.674 133.612 110.302 134.2C109.942 134.788 109.414 135.256 108.718 135.604C108.022 135.952 107.2 136.126 106.252 136.126ZM118.353 133.39V136H116.787C115.671 136 114.801 135.73 114.177 135.19C113.553 134.638 113.241 133.744 113.241 132.508V128.512H112.017V125.956H113.241V123.508H116.319V125.956H118.335V128.512H116.319V132.544C116.319 132.844 116.391 133.06 116.535 133.192C116.679 133.324 116.919 133.39 117.255 133.39H118.353ZM119.455 130.96C119.455 129.928 119.647 129.022 120.031 128.242C120.427 127.462 120.961 126.862 121.633 126.442C122.305 126.022 123.055 125.812 123.883 125.812C124.591 125.812 125.209 125.956 125.737 126.244C126.277 126.532 126.691 126.91 126.979 127.378V125.956H130.057V136H126.979V134.578C126.679 135.046 126.259 135.424 125.719 135.712C125.191 136 124.573 136.144 123.865 136.144C123.049 136.144 122.305 135.934 121.633 135.514C120.961 135.082 120.427 134.476 120.031 133.696C119.647 132.904 119.455 131.992 119.455 130.96ZM126.979 130.978C126.979 130.21 126.763 129.604 126.331 129.16C125.911 128.716 125.395 128.494 124.783 128.494C124.171 128.494 123.649 128.716 123.217 129.16C122.797 129.592 122.587 130.192 122.587 130.96C122.587 131.728 122.797 132.34 123.217 132.796C123.649 133.24 124.171 133.462 124.783 133.462C125.395 133.462 125.911 133.24 126.331 132.796C126.763 132.352 126.979 131.746 126.979 130.978ZM135.362 127.63C135.722 127.078 136.172 126.646 136.712 126.334C137.252 126.01 137.852 125.848 138.512 125.848V129.106H137.666C136.898 129.106 136.322 129.274 135.938 129.61C135.554 129.934 135.362 130.51 135.362 131.338V136H132.284V125.956H135.362V127.63ZM145.581 133.39V136H144.015C142.899 136 142.029 135.73 141.405 135.19C140.781 134.638 140.469 133.744 140.469 132.508V128.512H139.245V125.956H140.469V123.508H143.547V125.956H145.563V128.512H143.547V132.544C143.547 132.844 143.619 133.06 143.763 133.192C143.907 133.324 144.147 133.39 144.483 133.39H145.581Z" fill="white"/>
<path d="M128.48 196.25C128.48 194.186 128.876 192.56 129.668 191.372C130.472 190.184 131.762 189.59 133.538 189.59C135.314 189.59 136.598 190.184 137.39 191.372C138.194 192.56 138.596 194.186 138.596 196.25C138.596 198.338 138.194 199.976 137.39 201.164C136.598 202.352 135.314 202.946 133.538 202.946C131.762 202.946 130.472 202.352 129.668 201.164C128.876 199.976 128.48 198.338 128.48 196.25ZM135.572 196.25C135.572 195.038 135.44 194.108 135.176 193.46C134.912 192.8 134.366 192.47 133.538 192.47C132.71 192.47 132.164 192.8 131.9 193.46C131.636 194.108 131.504 195.038 131.504 196.25C131.504 197.066 131.552 197.744 131.648 198.284C131.744 198.812 131.936 199.244 132.224 199.58C132.524 199.904 132.962 200.066 133.538 200.066C134.114 200.066 134.546 199.904 134.834 199.58C135.134 199.244 135.332 198.812 135.428 198.284C135.524 197.744 135.572 197.066 135.572 196.25ZM139.898 192.722V189.86H144.884V203H141.68V192.722H139.898Z" fill="white"/>
<path d="M124.964 263.25C124.964 261.186 125.36 259.56 126.152 258.372C126.956 257.184 128.246 256.59 130.022 256.59C131.798 256.59 133.082 257.184 133.874 258.372C134.678 259.56 135.08 261.186 135.08 263.25C135.08 265.338 134.678 266.976 133.874 268.164C133.082 269.352 131.798 269.946 130.022 269.946C128.246 269.946 126.956 269.352 126.152 268.164C125.36 266.976 124.964 265.338 124.964 263.25ZM132.056 263.25C132.056 262.038 131.924 261.108 131.66 260.46C131.396 259.8 130.85 259.47 130.022 259.47C129.194 259.47 128.648 259.8 128.384 260.46C128.12 261.108 127.988 262.038 127.988 263.25C127.988 264.066 128.036 264.744 128.132 265.284C128.228 265.812 128.42 266.244 128.708 266.58C129.008 266.904 129.446 267.066 130.022 267.066C130.598 267.066 131.03 266.904 131.318 266.58C131.618 266.244 131.816 265.812 131.912 265.284C132.008 264.744 132.056 264.066 132.056 263.25ZM136.598 267.534C137.006 267.21 137.192 267.06 137.156 267.084C138.332 266.112 139.256 265.314 139.928 264.69C140.612 264.066 141.188 263.412 141.656 262.728C142.124 262.044 142.358 261.378 142.358 260.73C142.358 260.238 142.244 259.854 142.016 259.578C141.788 259.302 141.446 259.164 140.99 259.164C140.534 259.164 140.174 259.338 139.91 259.686C139.658 260.022 139.532 260.502 139.532 261.126H136.562C136.586 260.106 136.802 259.254 137.21 258.57C137.63 257.886 138.176 257.382 138.848 257.058C139.532 256.734 140.288 256.572 141.116 256.572C142.544 256.572 143.618 256.938 144.338 257.67C145.07 258.402 145.436 259.356 145.436 260.532C145.436 261.816 144.998 263.01 144.122 264.114C143.246 265.206 142.13 266.274 140.774 267.318H145.634V269.82H136.598V267.534Z" fill="white"/>
<path d="M124.349 330.25C124.349 328.186 124.745 326.56 125.537 325.372C126.341 324.184 127.631 323.59 129.407 323.59C131.183 323.59 132.467 324.184 133.259 325.372C134.063 326.56 134.465 328.186 134.465 330.25C134.465 332.338 134.063 333.976 133.259 335.164C132.467 336.352 131.183 336.946 129.407 336.946C127.631 336.946 126.341 336.352 125.537 335.164C124.745 333.976 124.349 332.338 124.349 330.25ZM131.441 330.25C131.441 329.038 131.309 328.108 131.045 327.46C130.781 326.8 130.235 326.47 129.407 326.47C128.579 326.47 128.033 326.8 127.769 327.46C127.505 328.108 127.373 329.038 127.373 330.25C127.373 331.066 127.421 331.744 127.517 332.284C127.613 332.812 127.805 333.244 128.093 333.58C128.393 333.904 128.831 334.066 129.407 334.066C129.983 334.066 130.415 333.904 130.703 333.58C131.003 333.244 131.201 332.812 131.297 332.284C131.393 331.744 131.441 331.066 131.441 330.25ZM136.199 327.568C136.247 326.284 136.667 325.294 137.459 324.598C138.251 323.902 139.325 323.554 140.681 323.554C141.581 323.554 142.349 323.71 142.985 324.022C143.633 324.334 144.119 324.76 144.443 325.3C144.779 325.84 144.947 326.446 144.947 327.118C144.947 327.91 144.749 328.558 144.353 329.062C143.957 329.554 143.495 329.89 142.967 330.07V330.142C143.651 330.37 144.191 330.748 144.587 331.276C144.983 331.804 145.181 332.482 145.181 333.31C145.181 334.054 145.007 334.714 144.659 335.29C144.323 335.854 143.825 336.298 143.165 336.622C142.517 336.946 141.743 337.108 140.843 337.108C139.403 337.108 138.251 336.754 137.387 336.046C136.535 335.338 136.085 334.27 136.037 332.842H139.025C139.037 333.37 139.187 333.79 139.475 334.102C139.763 334.402 140.183 334.552 140.735 334.552C141.203 334.552 141.563 334.42 141.815 334.156C142.079 333.88 142.211 333.52 142.211 333.076C142.211 332.5 142.025 332.086 141.653 331.834C141.293 331.57 140.711 331.438 139.907 331.438H139.331V328.936H139.907C140.519 328.936 141.011 328.834 141.383 328.63C141.767 328.414 141.959 328.036 141.959 327.496C141.959 327.064 141.839 326.728 141.599 326.488C141.359 326.248 141.029 326.128 140.609 326.128C140.153 326.128 139.811 326.266 139.583 326.542C139.367 326.818 139.241 327.16 139.205 327.568H136.199Z" fill="white"/>
</g>
</g>
<defs>
<filter id="filter0_d_26_5253" x="0.179688" y="0" width="277" height="444" filterUnits="userSpaceOnUse" color-interpolation-filters="sRGB">
<feFlood flood-opacity="0" result="BackgroundImageFix"/>
<feColorMatrix in="SourceAlpha" type="matrix" values="0 0 0 0 0 0 0 0 0 0 0 0 0 0 0 0 0 0 127 0" result="hardAlpha"/>
<feOffset/>
<feGaussianBlur stdDeviation="50"/>
<feColorMatrix type="matrix" values="0 0 0 0 0 0 0 0 0 0 0 0 0 0 0 0 0 0 0.2 0"/>
<feBlend mode="normal" in2="BackgroundImageFix" result="effect1_dropShadow_26_5253"/>
<feBlend mode="normal" in="SourceGraphic" in2="effect1_dropShadow_26_5253" result="shape"/>
</filter>
<clipPath id="clip0_26_5253">
<rect width="46" height="228" fill="white" transform="translate(100.18 116)"/>
</clipPath>
</defs>
</svg>
